# xmcd
#
# Track frame offsets: 
#        150
#        14747
#        30215
#        46577
#        62467
#        76160
#        89407
#        105402
#        120640
#        136755
#        153995
#        167880
#
# Disc length: 2424 seconds
#
# Revision: 1
# Processed by: cddbd v1.5.2PL0 Copyright (c) Steve Scherf et al.
# Submitted via: ExactAudioCopy v1.3
#
DISCID=8209760c
DTITLE=Firehouse Five Plus Two - Around The World!
DYEAR=1961
DGENRE=Jazz
TTITLE0=Isle Of Capri
TTITLE1=Japanese Sandman
TTITLE2=Hindustan
TTITLE3=Panama
TTITLE4=When Irish Eyes Are Smiling
TTITLE5=China Boy
TTITLE6=Russian Lullaby
TTITLE7=Sheik Of Araby
TTITLE8=It Happened In Monterey
TTITLE9=Lady Of Spain
TTITLE10=My Little Grass Shack In Kealakekua, Hawaii
TTITLE11=California Here I Come
EXTD=
EXTT0=
EXTT1=
EXTT2=
EXTT3=
EXTT4=
EXTT5=
EXTT6=
EXTT7=
EXTT8=
EXTT9=
EXTT10=
EXTT11=
PLAYORDER=
